<svg xmlns="http://www.w3.org/2000/svg" width="298" height="296" viewBox="0 0 298 296" version="1.1">
  <path d="M 102.236 32.963 C 91.290 35.613, 82.760 47.265, 82.753 59.573 C 82.748 69.278, 87.653 77.907, 96.250 83.316 L 99 85.046 99 106.381 L 99 127.716 95.388 134.608 C 93.401 138.399, 88.618 147.575, 84.760 155 C 80.901 162.425, 76.059 171.650, 74 175.500 C 71.941 179.350, 65.811 191.190, 60.378 201.811 L 50.500 221.123 50.500 231.332 C 50.500 240.860, 50.720 241.990, 53.797 248.239 C 57.985 256.746, 64.254 263.015, 72.761 267.203 L 79.458 270.500 144.479 270.500 L 209.500 270.500 216.201 267.326 C 229.340 261.101, 238.146 248.246, 238.852 234.258 C 239.242 226.538, 238.043 220.032, 235.134 214.087 C 233.063 209.853, 219.563 183.922, 213.484 172.500 C 208.616 163.354, 198.350 143.640, 193.374 133.883 L 190 127.267 190 106.274 L 190 85.281 195.250 81.391 C 205.900 73.498, 209.557 58.900, 203.738 47.500 C 200.720 41.586, 197.149 38.036, 191 34.840 C 186.516 32.508, 186.358 32.499, 146 32.336 C 123.725 32.246, 104.031 32.528, 102.236 32.963 M 107.119 55.629 C 104.612 57.385, 104.382 60.239, 106.571 62.429 C 107.943 63.800, 112.822 64, 144.949 64 C 184.599 64, 184.568 64.004, 183.827 58.830 C 183.184 54.346, 180.773 54.061, 143.869 54.104 C 114.918 54.139, 108.890 54.389, 107.119 55.629 M 121.801 110.750 L 121.500 134.500 116.918 142.500 C 114.397 146.900, 107.589 159.725, 101.787 171 C 95.986 182.275, 89.448 194.875, 87.259 199 C 71.299 229.074, 70.462 231.993, 75.383 240.390 C 80.285 248.755, 77.988 248.459, 140.754 248.800 C 175.653 248.989, 198.056 248.721, 201.569 248.072 C 208.375 246.814, 212.191 244.225, 214.543 239.270 C 217.549 232.937, 216.894 228.463, 211.346 217.423 C 205.683 206.157, 192.600 180.952, 186.988 170.500 C 184.921 166.650, 179.578 156.412, 175.115 147.750 L 167 131.999 167 109.500 L 167 87 144.551 87 L 122.101 87 121.801 110.750 M 111.200 193.200 C 108.451 195.949, 109.911 199.529, 116.859 207.069 L 123.717 214.512 116.853 222.006 C 108.984 230.595, 108.127 232.378, 110.565 235.072 C 114.231 239.123, 117.048 237.725, 127.873 226.486 C 133.443 220.703, 138 215.341, 138 214.570 C 138 213.800, 133.452 208.406, 127.894 202.584 C 119.944 194.258, 117.214 192, 115.094 192 C 113.612 192, 111.860 192.540, 111.200 193.200 M 148 197 C 145.592 199.408, 145.465 201.322, 147.571 203.429 C 148.879 204.736, 152.054 205, 166.500 205 C 180.946 205, 184.121 204.736, 185.429 203.429 C 187.601 201.256, 187.406 197.288, 185.066 196.035 C 183.956 195.441, 176.073 195, 166.566 195 C 151.333 195, 149.839 195.161, 148 197 M 145.466 216.411 C 144.214 218.323, 144.103 219.323, 144.964 220.933 C 146.021 222.907, 146.895 223, 164.413 223 C 184.460 223, 185.443 222.726, 184.822 217.310 L 184.500 214.500 165.787 214.228 L 147.075 213.956 145.466 216.411" stroke="none" fill-rule="evenodd"/></svg>
